<svg xmlns="http://www.w3.org/2000/svg" xmlns:xlink="http://www.w3.org/1999/xlink" version="1.1" class="marks" width="991" height="379" viewBox="0 0 991 379"><rect width="991" height="379" fill="white"/><g fill="none" stroke-miterlimit="10" transform="translate(39,28)"><g class="mark-group role-frame root" role="graphics-object" aria-roledescription="group mark container"><g transform="translate(0,0)"><path class="background" aria-hidden="true" d="M0,0h0v300h0Z"/><g><g class="mark-group role-scope concat_0_group" role="graphics-object" aria-roledescription="group mark container"><g transform="translate(0,0)"><path class="background" aria-hidden="true" d="M0.5,0.5h450v300h-450Z" stroke="#ddd"/><g><g class="mark-group role-axis" aria-hidden="true"><g transform="translate(0.5,0.5)"><path class="background" aria-hidden="true" d="M0,0h0v0h0Z" pointer-events="none"/><g><g class="mark-rule role-axis-grid" pointer-events="none"><line transform="translate(0,300)" x2="450" y2="0" stroke="#e8e8e8" stroke-opacity="0.4" stroke-width="1" opacity="1"/><line transform="translate(0,263)" x2="450" y2="0" stroke="#e8e8e8" stroke-opacity="0.4" stroke-width="1" opacity="1"/><line transform="translate(0,225)" x2="450" y2="0" stroke="#e8e8e8" stroke-opacity="0.4" stroke-width="1" opacity="1"/><line transform="translate(0,188)" x2="450" y2="0" stroke="#e8e8e8" stroke-opacity="0.4" stroke-width="1" opacity="1"/><line transform="translate(0,150)" x2="450" y2="0" stroke="#e8e8e8" stroke-opacity="0.4" stroke-width="1" opacity="1"/><line transform="translate(0,113)" x2="450" y2="0" stroke="#e8e8e8" stroke-opacity="0.4" stroke-width="1" opacity="1"/><line transform="translate(0,75)" x2="450" y2="0" stroke="#e8e8e8" stroke-opacity="0.4" stroke-width="1" opacity="1"/><line transform="translate(0,38)" x2="450" y2="0" stroke="#e8e8e8" stroke-opacity="0.4" stroke-width="1" opacity="1"/><line transform="translate(0,0)" x2="450" y2="0" stroke="#e8e8e8" stroke-opacity="0.4" stroke-width="1" opacity="1"/></g></g><path class="foreground" aria-hidden="true" d="" pointer-events="none" display="none"/></g></g><g class="mark-group role-axis" role="graphics-symbol" aria-roledescription="axis" aria-label="X-axis titled 'Year' for a discrete scale with 7 values: 2019, 2020, 2021, 2022, 2023, 2024, 2025"><g transform="translate(0.5,300.5)"><path class="background" aria-hidden="true" d="M0,0h0v0h0Z" pointer-events="none"/><g><g class="mark-rule role-axis-tick" pointer-events="none"><line transform="translate(32,0)" x2="0" y2="5" stroke="#888" stroke-width="1" opacity="1"/><line transform="translate(96,0)" x2="0" y2="5" stroke="#888" stroke-width="1" opacity="1"/><line transform="translate(161,0)" x2="0" y2="5" stroke="#888" stroke-width="1" opacity="1"/><line transform="translate(225,0)" x2="0" y2="5" stroke="#888" stroke-width="1" opacity="1"/><line transform="translate(289,0)" x2="0" y2="5" stroke="#888" stroke-width="1" opacity="1"/><line transform="translate(354,0)" x2="0" y2="5" stroke="#888" stroke-width="1" opacity="1"/><line transform="translate(418,0)" x2="0" y2="5" stroke="#888" stroke-width="1" opacity="1"/></g><g class="mark-text role-axis-label" pointer-events="none"><text text-anchor="end" transform="translate(32.14285714285711,7) rotate(270) translate(0,3)" font-family="sans-serif" font-size="10px" fill="#000" opacity="1">2019</text><text text-anchor="end" transform="translate(96.4285714285714,7) rotate(270) translate(0,3)" font-family="sans-serif" font-size="10px" fill="#000" opacity="1">2020</text><text text-anchor="end" transform="translate(160.7142857142857,7) rotate(270) translate(0,3)" font-family="sans-serif" font-size="10px" fill="#000" opacity="1">2021</text><text text-anchor="end" transform="translate(225,7) rotate(270) translate(0,3)" font-family="sans-serif" font-size="10px" fill="#000" opacity="1">2022</text><text text-anchor="end" transform="translate(289.2857142857143,7) rotate(270) translate(0,3)" font-family="sans-serif" font-size="10px" fill="#000" opacity="1">2023</text><text text-anchor="end" transform="translate(353.57142857142856,7) rotate(270) translate(0,3)" font-family="sans-serif" font-size="10px" fill="#000" opacity="1">2024</text><text text-anchor="end" transform="translate(417.8571428571429,7) rotate(270) translate(0,3)" font-family="sans-serif" font-size="10px" fill="#000" opacity="1">2025</text></g><g class="mark-rule role-axis-domain" pointer-events="none"><line transform="translate(0,0)" x2="450" y2="0" stroke="#888" stroke-width="1" opacity="1"/></g><g class="mark-text role-axis-title" pointer-events="none"><text text-anchor="middle" transform="translate(225,42.24609375)" font-family="sans-serif" font-size="11px" font-weight="bold" fill="#000" opacity="1">Year</text></g></g><path class="foreground" aria-hidden="true" d="" pointer-events="none" display="none"/></g></g><g class="mark-group role-axis" role="graphics-symbol" aria-roledescription="axis" aria-label="Y-axis for a linear scale with values from 0 to 1,600"><g transform="translate(0.5,0.5)"><path class="background" aria-hidden="true" d="M0,0h0v0h0Z" pointer-events="none"/><g><g class="mark-rule role-axis-tick" pointer-events="none"><line transform="translate(0,300)" x2="-5" y2="0" stroke="#888" stroke-width="1" opacity="1"/><line transform="translate(0,263)" x2="-5" y2="0" stroke="#888" stroke-width="1" opacity="1"/><line transform="translate(0,225)" x2="-5" y2="0" stroke="#888" stroke-width="1" opacity="1"/><line transform="translate(0,188)" x2="-5" y2="0" stroke="#888" stroke-width="1" opacity="1"/><line transform="translate(0,150)" x2="-5" y2="0" stroke="#888" stroke-width="1" opacity="1"/><line transform="translate(0,113)" x2="-5" y2="0" stroke="#888" stroke-width="1" opacity="1"/><line transform="translate(0,75)" x2="-5" y2="0" stroke="#888" stroke-width="1" opacity="1"/><line transform="translate(0,38)" x2="-5" y2="0" stroke="#888" stroke-width="1" opacity="1"/><line transform="translate(0,0)" x2="-5" y2="0" stroke="#888" stroke-width="1" opacity="1"/></g><g class="mark-text role-axis-label" pointer-events="none"><text text-anchor="end" transform="translate(-7,303)" font-family="sans-serif" font-size="10px" fill="#000" opacity="1">0</text><text text-anchor="end" transform="translate(-7,265.5)" font-family="sans-serif" font-size="10px" fill="#000" opacity="1">200</text><text text-anchor="end" transform="translate(-7,228)" font-family="sans-serif" font-size="10px" fill="#000" opacity="1">400</text><text text-anchor="end" transform="translate(-7,190.5)" font-family="sans-serif" font-size="10px" fill="#000" opacity="1">600</text><text text-anchor="end" transform="translate(-7,153)" font-family="sans-serif" font-size="10px" fill="#000" opacity="1">800</text><text text-anchor="end" transform="translate(-7,115.5)" font-family="sans-serif" font-size="10px" fill="#000" opacity="1">1,000</text><text text-anchor="end" transform="translate(-7,78)" font-family="sans-serif" font-size="10px" fill="#000" opacity="1">1,200</text><text text-anchor="end" transform="translate(-7,40.5)" font-family="sans-serif" font-size="10px" fill="#000" opacity="1">1,400</text><text text-anchor="end" transform="translate(-7,3)" font-family="sans-serif" font-size="10px" fill="#000" opacity="1">1,600</text></g><g class="mark-rule role-axis-domain" pointer-events="none"><line transform="translate(0,300)" x2="0" y2="-300" stroke="#888" stroke-width="1" opacity="1"/></g></g><path class="foreground" aria-hidden="true" d="" pointer-events="none" display="none"/></g></g><g class="mark-group role-scope concat_0_layer_0_pathgroup" role="graphics-object" aria-roledescription="group mark container"><g transform="translate(0,0)"><path class="background" aria-hidden="true" d="M0,0h450v300h-450Z"/><g><g class="mark-line role-mark concat_0_layer_0_marks" role="graphics-object" aria-roledescription="line mark container"><path aria-label="Year: 2019; enrollment: 1289; school_name: Amundsen High School" role="graphics-symbol" aria-roledescription="line mark" d="M32.143,58.312L96.429,40.875L160.714,27.375L225,21.375L289.286,19.875L353.571,18.75L417.857,33.75" stroke="blue" stroke-width="2"/></g></g><path class="foreground" aria-hidden="true" d="" display="none"/></g><g transform="translate(0,0)"><path class="background" aria-hidden="true" d="M0,0h450v300h-450Z"/><g><g class="mark-line role-mark concat_0_layer_0_marks" role="graphics-object" aria-roledescription="line mark container"><path aria-label="Year: 2019; enrollment: 1067; school_name: Back of The Yards IB HS" role="graphics-symbol" aria-roledescription="line mark" d="M32.143,99.938L96.429,99.563L160.714,98.438L225,102.75L289.286,111.938L353.571,112.5L417.857,109.875" stroke="red" stroke-width="2"/></g></g><path class="foreground" aria-hidden="true" d="" display="none"/></g></g><g class="mark-symbol role-mark concat_0_layer_1_marks" role="graphics-object" aria-roledescription="symbol mark container"><path aria-label="Year: 2019; enrollment: 1289; school_name: Amundsen High School" role="graphics-symbol" aria-roledescription="point" transform="translate(32.14285714285711,58.312499999999986)" d="M2.739,0A2.739,2.739,0,1,1,-2.739,0A2.739,2.739,0,1,1,2.739,0" fill="blue" stroke-width="2" opacity="1"/><path aria-label="Year: 2019; enrollment: 1067; school_name: Back of The Yards IB HS" role="graphics-symbol" aria-roledescription="point" transform="translate(32.14285714285711,99.9375)" d="M2.739,0A2.739,2.739,0,1,1,-2.739,0A2.739,2.739,0,1,1,2.739,0" fill="red" stroke-width="2" opacity="1"/><path aria-label="Year: 2020; enrollment: 1069; school_name: Back of The Yards IB HS" role="graphics-symbol" aria-roledescription="point" transform="translate(96.4285714285714,99.56250000000001)" d="M2.739,0A2.739,2.739,0,1,1,-2.739,0A2.739,2.739,0,1,1,2.739,0" fill="red" stroke-width="2" opacity="1"/><path aria-label="Year: 2020; enrollment: 1382; school_name: Amundsen High School" role="graphics-symbol" aria-roledescription="point" transform="translate(96.4285714285714,40.87499999999999)" d="M2.739,0A2.739,2.739,0,1,1,-2.739,0A2.739,2.739,0,1,1,2.739,0" fill="blue" stroke-width="2" opacity="1"/><path aria-label="Year: 2021; enrollment: 1454; school_name: Amundsen High School" role="graphics-symbol" aria-roledescription="point" transform="translate(160.7142857142857,27.375000000000014)" d="M2.739,0A2.739,2.739,0,1,1,-2.739,0A2.739,2.739,0,1,1,2.739,0" fill="blue" stroke-width="2" opacity="1"/><path aria-label="Year: 2021; enrollment: 1075; school_name: Back of The Yards IB HS" role="graphics-symbol" aria-roledescription="point" transform="translate(160.7142857142857,98.4375)" d="M2.739,0A2.739,2.739,0,1,1,-2.739,0A2.739,2.739,0,1,1,2.739,0" fill="red" stroke-width="2" opacity="1"/><path aria-label="Year: 2022; enrollment: 1052; school_name: Back of The Yards IB HS" role="graphics-symbol" aria-roledescription="point" transform="translate(225,102.75000000000001)" d="M2.739,0A2.739,2.739,0,1,1,-2.739,0A2.739,2.739,0,1,1,2.739,0" fill="red" stroke-width="2" opacity="1"/><path aria-label="Year: 2022; enrollment: 1486; school_name: Amundsen High School" role="graphics-symbol" aria-roledescription="point" transform="translate(225,21.37500000000001)" d="M2.739,0A2.739,2.739,0,1,1,-2.739,0A2.739,2.739,0,1,1,2.739,0" fill="blue" stroke-width="2" opacity="1"/><path aria-label="Year: 2023; enrollment: 1003; school_name: Back of The Yards IB HS" role="graphics-symbol" aria-roledescription="point" transform="translate(289.2857142857143,111.93750000000001)" d="M2.739,0A2.739,2.739,0,1,1,-2.739,0A2.739,2.739,0,1,1,2.739,0" fill="red" stroke-width="2" opacity="1"/><path aria-label="Year: 2023; enrollment: 1494; school_name: Amundsen High School" role="graphics-symbol" aria-roledescription="point" transform="translate(289.2857142857143,19.87500000000001)" d="M2.739,0A2.739,2.739,0,1,1,-2.739,0A2.739,2.739,0,1,1,2.739,0" fill="blue" stroke-width="2" opacity="1"/><path aria-label="Year: 2024; enrollment: 1500; school_name: Amundsen High School" role="graphics-symbol" aria-roledescription="point" transform="translate(353.57142857142856,18.75)" d="M2.739,0A2.739,2.739,0,1,1,-2.739,0A2.739,2.739,0,1,1,2.739,0" fill="blue" stroke-width="2" opacity="1"/><path aria-label="Year: 2024; enrollment: 1000; school_name: Back of The Yards IB HS" role="graphics-symbol" aria-roledescription="point" transform="translate(353.57142857142856,112.5)" d="M2.739,0A2.739,2.739,0,1,1,-2.739,0A2.739,2.739,0,1,1,2.739,0" fill="red" stroke-width="2" opacity="1"/><path aria-label="Year: 2025; enrollment: 1014; school_name: Back of The Yards IB HS" role="graphics-symbol" aria-roledescription="point" transform="translate(417.8571428571429,109.87499999999999)" d="M2.739,0A2.739,2.739,0,1,1,-2.739,0A2.739,2.739,0,1,1,2.739,0" fill="red" stroke-width="2" opacity="1"/><path aria-label="Year: 2025; enrollment: 1420; school_name: Amundsen High School" role="graphics-symbol" aria-roledescription="point" transform="translate(417.8571428571429,33.750000000000014)" d="M2.739,0A2.739,2.739,0,1,1,-2.739,0A2.739,2.739,0,1,1,2.739,0" fill="blue" stroke-width="2" opacity="1"/></g><g class="mark-group role-title"><g transform="translate(225,-22)"><path class="background" aria-hidden="true" d="M0,0h0v0h0Z" pointer-events="none"/><g><g class="mark-text role-title-text" role="graphics-symbol" aria-roledescription="title" aria-label="Title text 'Enrollment'" pointer-events="none"><text text-anchor="middle" transform="translate(0,10)" font-family="sans-serif" font-size="13px" font-weight="bold" fill="#000" opacity="1">Enrollment</text></g></g><path class="foreground" aria-hidden="true" d="" pointer-events="none" display="none"/></g></g></g><path class="foreground" aria-hidden="true" d="" display="none"/></g></g><g class="mark-group role-scope concat_1_group" role="graphics-object" aria-roledescription="group mark container"><g transform="translate(496,0)"><path class="background" aria-hidden="true" d="M0.5,0.5h450v300h-450Z" stroke="#ddd"/><g><g class="mark-group role-axis" aria-hidden="true"><g transform="translate(0.5,0.5)"><path class="background" aria-hidden="true" d="M0,0h0v0h0Z" pointer-events="none"/><g><g class="mark-rule role-axis-grid" pointer-events="none"><line transform="translate(0,300)" x2="450" y2="0" stroke="#e8e8e8" stroke-opacity="0.4" stroke-width="1" opacity="1"/><line transform="translate(0,270)" x2="450" y2="0" stroke="#e8e8e8" stroke-opacity="0.4" stroke-width="1" opacity="1"/><line transform="translate(0,240)" x2="450" y2="0" stroke="#e8e8e8" stroke-opacity="0.4" stroke-width="1" opacity="1"/><line transform="translate(0,210)" x2="450" y2="0" stroke="#e8e8e8" stroke-opacity="0.4" stroke-width="1" opacity="1"/><line transform="translate(0,180)" x2="450" y2="0" stroke="#e8e8e8" stroke-opacity="0.4" stroke-width="1" opacity="1"/><line transform="translate(0,150)" x2="450" y2="0" stroke="#e8e8e8" stroke-opacity="0.4" stroke-width="1" opacity="1"/><line transform="translate(0,120)" x2="450" y2="0" stroke="#e8e8e8" stroke-opacity="0.4" stroke-width="1" opacity="1"/><line transform="translate(0,90)" x2="450" y2="0" stroke="#e8e8e8" stroke-opacity="0.4" stroke-width="1" opacity="1"/><line transform="translate(0,60)" x2="450" y2="0" stroke="#e8e8e8" stroke-opacity="0.4" stroke-width="1" opacity="1"/><line transform="translate(0,30)" x2="450" y2="0" stroke="#e8e8e8" stroke-opacity="0.4" stroke-width="1" opacity="1"/><line transform="translate(0,0)" x2="450" y2="0" stroke="#e8e8e8" stroke-opacity="0.4" stroke-width="1" opacity="1"/></g></g><path class="foreground" aria-hidden="true" d="" pointer-events="none" display="none"/></g></g><g class="mark-group role-axis" role="graphics-symbol" aria-roledescription="axis" aria-label="X-axis titled 'Year' for a discrete scale with 7 values: 2019, 2020, 2021, 2022, 2023, 2024, 2025"><g transform="translate(0.5,300.5)"><path class="background" aria-hidden="true" d="M0,0h0v0h0Z" pointer-events="none"/><g><g class="mark-rule role-axis-tick" pointer-events="none"><line transform="translate(32,0)" x2="0" y2="5" stroke="#888" stroke-width="1" opacity="1"/><line transform="translate(96,0)" x2="0" y2="5" stroke="#888" stroke-width="1" opacity="1"/><line transform="translate(161,0)" x2="0" y2="5" stroke="#888" stroke-width="1" opacity="1"/><line transform="translate(225,0)" x2="0" y2="5" stroke="#888" stroke-width="1" opacity="1"/><line transform="translate(289,0)" x2="0" y2="5" stroke="#888" stroke-width="1" opacity="1"/><line transform="translate(354,0)" x2="0" y2="5" stroke="#888" stroke-width="1" opacity="1"/><line transform="translate(418,0)" x2="0" y2="5" stroke="#888" stroke-width="1" opacity="1"/></g><g class="mark-text role-axis-label" pointer-events="none"><text text-anchor="end" transform="translate(32.14285714285711,7) rotate(270) translate(0,3)" font-family="sans-serif" font-size="10px" fill="#000" opacity="1">2019</text><text text-anchor="end" transform="translate(96.4285714285714,7) rotate(270) translate(0,3)" font-family="sans-serif" font-size="10px" fill="#000" opacity="1">2020</text><text text-anchor="end" transform="translate(160.7142857142857,7) rotate(270) translate(0,3)" font-family="sans-serif" font-size="10px" fill="#000" opacity="1">2021</text><text text-anchor="end" transform="translate(225,7) rotate(270) translate(0,3)" font-family="sans-serif" font-size="10px" fill="#000" opacity="1">2022</text><text text-anchor="end" transform="translate(289.2857142857143,7) rotate(270) translate(0,3)" font-family="sans-serif" font-size="10px" fill="#000" opacity="1">2023</text><text text-anchor="end" transform="translate(353.57142857142856,7) rotate(270) translate(0,3)" font-family="sans-serif" font-size="10px" fill="#000" opacity="1">2024</text><text text-anchor="end" transform="translate(417.8571428571429,7) rotate(270) translate(0,3)" font-family="sans-serif" font-size="10px" fill="#000" opacity="1">2025</text></g><g class="mark-rule role-axis-domain" pointer-events="none"><line transform="translate(0,0)" x2="450" y2="0" stroke="#888" stroke-width="1" opacity="1"/></g><g class="mark-text role-axis-title" pointer-events="none"><text text-anchor="middle" transform="translate(225,42.24609375)" font-family="sans-serif" font-size="11px" font-weight="bold" fill="#000" opacity="1">Year</text></g></g><path class="foreground" aria-hidden="true" d="" pointer-events="none" display="none"/></g></g><g class="mark-group role-axis" role="graphics-symbol" aria-roledescription="axis" aria-label="Y-axis for a linear scale with values from 0 to 100"><g transform="translate(0.5,0.5)"><path class="background" aria-hidden="true" d="M0,0h0v0h0Z" pointer-events="none"/><g><g class="mark-rule role-axis-tick" pointer-events="none"><line transform="translate(0,300)" x2="-5" y2="0" stroke="#888" stroke-width="1" opacity="1"/><line transform="translate(0,270)" x2="-5" y2="0" stroke="#888" stroke-width="1" opacity="1"/><line transform="translate(0,240)" x2="-5" y2="0" stroke="#888" stroke-width="1" opacity="1"/><line transform="translate(0,210)" x2="-5" y2="0" stroke="#888" stroke-width="1" opacity="1"/><line transform="translate(0,180)" x2="-5" y2="0" stroke="#888" stroke-width="1" opacity="1"/><line transform="translate(0,150)" x2="-5" y2="0" stroke="#888" stroke-width="1" opacity="1"/><line transform="translate(0,120)" x2="-5" y2="0" stroke="#888" stroke-width="1" opacity="1"/><line transform="translate(0,90)" x2="-5" y2="0" stroke="#888" stroke-width="1" opacity="1"/><line transform="translate(0,60)" x2="-5" y2="0" stroke="#888" stroke-width="1" opacity="1"/><line transform="translate(0,30)" x2="-5" y2="0" stroke="#888" stroke-width="1" opacity="1"/><line transform="translate(0,0)" x2="-5" y2="0" stroke="#888" stroke-width="1" opacity="1"/></g><g class="mark-text role-axis-label" pointer-events="none"><text text-anchor="end" transform="translate(-7,303)" font-family="sans-serif" font-size="10px" fill="#000" opacity="1">0</text><text text-anchor="end" transform="translate(-7,273)" font-family="sans-serif" font-size="10px" fill="#000" opacity="1">10</text><text text-anchor="end" transform="translate(-7,243)" font-family="sans-serif" font-size="10px" fill="#000" opacity="1">20</text><text text-anchor="end" transform="translate(-7,213)" font-family="sans-serif" font-size="10px" fill="#000" opacity="1">30</text><text text-anchor="end" transform="translate(-7,183)" font-family="sans-serif" font-size="10px" fill="#000" opacity="1">40</text><text text-anchor="end" transform="translate(-7,153)" font-family="sans-serif" font-size="10px" fill="#000" opacity="1">50</text><text text-anchor="end" transform="translate(-7,123)" font-family="sans-serif" font-size="10px" fill="#000" opacity="1">60</text><text text-anchor="end" transform="translate(-7,93.00000000000001)" font-family="sans-serif" font-size="10px" fill="#000" opacity="1">70</text><text text-anchor="end" transform="translate(-7,62.999999999999986)" font-family="sans-serif" font-size="10px" fill="#000" opacity="1">80</text><text text-anchor="end" transform="translate(-7,32.99999999999999)" font-family="sans-serif" font-size="10px" fill="#000" opacity="1">90</text><text text-anchor="end" transform="translate(-7,3)" font-family="sans-serif" font-size="10px" fill="#000" opacity="1">100</text></g><g class="mark-rule role-axis-domain" pointer-events="none"><line transform="translate(0,300)" x2="0" y2="-300" stroke="#888" stroke-width="1" opacity="1"/></g></g><path class="foreground" aria-hidden="true" d="" pointer-events="none" display="none"/></g></g><g class="mark-group role-scope concat_1_layer_0_pathgroup" role="graphics-object" aria-roledescription="group mark container"><g transform="translate(0,0)"><path class="background" aria-hidden="true" d="M0,0h450v300h-450Z"/><g><g class="mark-line role-mark concat_1_layer_0_marks" role="graphics-object" aria-roledescription="line mark container"><path aria-label="Year: 2019; graduation_rate: 89.5; school_name: Amundsen High School" role="graphics-symbol" aria-roledescription="line mark" d="M32.143,31.5L96.429,31.5L160.714,31.5L225,31.5L289.286,31.5L353.571,31.5L417.857,31.5" stroke="blue" stroke-width="2"/></g></g><path class="foreground" aria-hidden="true" d="" display="none"/></g><g transform="translate(0,0)"><path class="background" aria-hidden="true" d="M0,0h450v300h-450Z"/><g><g class="mark-line role-mark concat_1_layer_0_marks" role="graphics-object" aria-roledescription="line mark container"><path aria-label="Year: 2019; graduation_rate: 95.2; school_name: Back of The Yards IB HS" role="graphics-symbol" aria-roledescription="line mark" d="M32.143,14.4L96.429,14.4L160.714,14.4L225,14.4L289.286,14.4L353.571,14.4L417.857,14.4" stroke="red" stroke-width="2"/></g></g><path class="foreground" aria-hidden="true" d="" display="none"/></g></g><g class="mark-symbol role-mark concat_1_layer_1_marks" role="graphics-object" aria-roledescription="symbol mark container"><path aria-label="Year: 2019; graduation_rate: 89.5; school_name: Amundsen High School" role="graphics-symbol" aria-roledescription="point" transform="translate(32.14285714285711,31.499999999999993)" d="M2.739,0A2.739,2.739,0,1,1,-2.739,0A2.739,2.739,0,1,1,2.739,0" fill="blue" stroke-width="2" opacity="1"/><path aria-label="Year: 2019; graduation_rate: 95.2; school_name: Back of The Yards IB HS" role="graphics-symbol" aria-roledescription="point" transform="translate(32.14285714285711,14.399999999999979)" d="M2.739,0A2.739,2.739,0,1,1,-2.739,0A2.739,2.739,0,1,1,2.739,0" fill="red" stroke-width="2" opacity="1"/><path aria-label="Year: 2020; graduation_rate: 95.2; school_name: Back of The Yards IB HS" role="graphics-symbol" aria-roledescription="point" transform="translate(96.4285714285714,14.399999999999979)" d="M2.739,0A2.739,2.739,0,1,1,-2.739,0A2.739,2.739,0,1,1,2.739,0" fill="red" stroke-width="2" opacity="1"/><path aria-label="Year: 2020; graduation_rate: 89.5; school_name: Amundsen High School" role="graphics-symbol" aria-roledescription="point" transform="translate(96.4285714285714,31.499999999999993)" d="M2.739,0A2.739,2.739,0,1,1,-2.739,0A2.739,2.739,0,1,1,2.739,0" fill="blue" stroke-width="2" opacity="1"/><path aria-label="Year: 2021; graduation_rate: 89.5; school_name: Amundsen High School" role="graphics-symbol" aria-roledescription="point" transform="translate(160.7142857142857,31.499999999999993)" d="M2.739,0A2.739,2.739,0,1,1,-2.739,0A2.739,2.739,0,1,1,2.739,0" fill="blue" stroke-width="2" opacity="1"/><path aria-label="Year: 2021; graduation_rate: 95.2; school_name: Back of The Yards IB HS" role="graphics-symbol" aria-roledescription="point" transform="translate(160.7142857142857,14.399999999999979)" d="M2.739,0A2.739,2.739,0,1,1,-2.739,0A2.739,2.739,0,1,1,2.739,0" fill="red" stroke-width="2" opacity="1"/><path aria-label="Year: 2022; graduation_rate: 95.2; school_name: Back of The Yards IB HS" role="graphics-symbol" aria-roledescription="point" transform="translate(225,14.399999999999979)" d="M2.739,0A2.739,2.739,0,1,1,-2.739,0A2.739,2.739,0,1,1,2.739,0" fill="red" stroke-width="2" opacity="1"/><path aria-label="Year: 2022; graduation_rate: 89.5; school_name: Amundsen High School" role="graphics-symbol" aria-roledescription="point" transform="translate(225,31.499999999999993)" d="M2.739,0A2.739,2.739,0,1,1,-2.739,0A2.739,2.739,0,1,1,2.739,0" fill="blue" stroke-width="2" opacity="1"/><path aria-label="Year: 2023; graduation_rate: 95.2; school_name: Back of The Yards IB HS" role="graphics-symbol" aria-roledescription="point" transform="translate(289.2857142857143,14.399999999999979)" d="M2.739,0A2.739,2.739,0,1,1,-2.739,0A2.739,2.739,0,1,1,2.739,0" fill="red" stroke-width="2" opacity="1"/><path aria-label="Year: 2023; graduation_rate: 89.5; school_name: Amundsen High School" role="graphics-symbol" aria-roledescription="point" transform="translate(289.2857142857143,31.499999999999993)" d="M2.739,0A2.739,2.739,0,1,1,-2.739,0A2.739,2.739,0,1,1,2.739,0" fill="blue" stroke-width="2" opacity="1"/><path aria-label="Year: 2024; graduation_rate: 89.5; school_name: Amundsen High School" role="graphics-symbol" aria-roledescription="point" transform="translate(353.57142857142856,31.499999999999993)" d="M2.739,0A2.739,2.739,0,1,1,-2.739,0A2.739,2.739,0,1,1,2.739,0" fill="blue" stroke-width="2" opacity="1"/><path aria-label="Year: 2024; graduation_rate: 95.2; school_name: Back of The Yards IB HS" role="graphics-symbol" aria-roledescription="point" transform="translate(353.57142857142856,14.399999999999979)" d="M2.739,0A2.739,2.739,0,1,1,-2.739,0A2.739,2.739,0,1,1,2.739,0" fill="red" stroke-width="2" opacity="1"/><path aria-label="Year: 2025; graduation_rate: 95.2; school_name: Back of The Yards IB HS" role="graphics-symbol" aria-roledescription="point" transform="translate(417.8571428571429,14.399999999999979)" d="M2.739,0A2.739,2.739,0,1,1,-2.739,0A2.739,2.739,0,1,1,2.739,0" fill="red" stroke-width="2" opacity="1"/><path aria-label="Year: 2025; graduation_rate: 89.5; school_name: Amundsen High School" role="graphics-symbol" aria-roledescription="point" transform="translate(417.8571428571429,31.499999999999993)" d="M2.739,0A2.739,2.739,0,1,1,-2.739,0A2.739,2.739,0,1,1,2.739,0" fill="blue" stroke-width="2" opacity="1"/></g><g class="mark-group role-title"><g transform="translate(225,-22)"><path class="background" aria-hidden="true" d="M0,0h0v0h0Z" pointer-events="none"/><g><g class="mark-text role-title-text" role="graphics-symbol" aria-roledescription="title" aria-label="Title text 'Graduation Rate'" pointer-events="none"><text text-anchor="middle" transform="translate(0,10)" font-family="sans-serif" font-size="13px" font-weight="bold" fill="#000" opacity="1">Graduation Rate</text></g></g><path class="foreground" aria-hidden="true" d="" pointer-events="none" display="none"/></g></g></g><path class="foreground" aria-hidden="true" d="" display="none"/></g></g><g class="mark-group role-legend" role="graphics-symbol" aria-roledescription="legend" aria-label="Symbol legend for fill color and stroke color with 2 values: Amundsen High School, Back of The Yards IB HS"><g transform="translate(18,18)"><path class="background" aria-hidden="true" d="M0,0h161v30h-161Z" pointer-events="none"/><g><g class="mark-group role-legend-entry"><g transform="translate(0,0)"><path class="background" aria-hidden="true" d="M0,0h0v0h0Z" pointer-events="none"/><g><g class="mark-group role-scope" role="graphics-object" aria-roledescription="group mark container"><g transform="translate(0,0)"><path class="background" aria-hidden="true" d="M0,0h160.06982421875v13.5h-160.06982421875Z" pointer-events="none" opacity="1"/><g><g class="mark-symbol role-legend-symbol" pointer-events="none"><path transform="translate(6.5,6.5)" d="M5,0A5,5,0,1,1,-5,0A5,5,0,1,1,5,0" fill="blue" stroke="blue" stroke-width="1.5" opacity="1"/></g><g class="mark-text role-legend-label" pointer-events="none"><text text-anchor="start" transform="translate(17,10.5)" font-family="sans-serif" font-size="13px" fill="#000" opacity="1">Amundsen High School</text></g></g><path class="foreground" aria-hidden="true" d="" pointer-events="none" display="none"/></g><g transform="translate(0,16)"><path class="background" aria-hidden="true" d="M0,0h160.06982421875v13.5h-160.06982421875Z" pointer-events="none" opacity="1"/><g><g class="mark-symbol role-legend-symbol" pointer-events="none"><path transform="translate(6.5,6.5)" d="M5,0A5,5,0,1,1,-5,0A5,5,0,1,1,5,0" fill="red" stroke="red" stroke-width="1.5" opacity="1"/></g><g class="mark-text role-legend-label" pointer-events="none"><text text-anchor="start" transform="translate(17,10.5)" font-family="sans-serif" font-size="13px" fill="#000" opacity="1">Back of The Yards IB HS</text></g></g><path class="foreground" aria-hidden="true" d="" pointer-events="none" display="none"/></g></g></g><path class="foreground" aria-hidden="true" d="" pointer-events="none" display="none"/></g></g></g><path class="foreground" aria-hidden="true" d="" pointer-events="none" display="none"/></g></g></g><path class="foreground" aria-hidden="true" d="" display="none"/></g></g></g></svg>